HIERARCHY
ROOT Hips
{
  OFFSET 3.13124 94.3669 -3.18751
  CHANNELS  6 Xposition Yposition Zposition Zrotation Xrotation Yrotation
  JOINT LeftUpLeg
  {
    OFFSET 8.64259 1.95398 -2.38835
    CHANNELS 3 Zrotation Xrotation Yrotation
    JOINT LeftLeg
    {
      OFFSET 43.7702 0 0
      CHANNELS 3 Zrotation Xrotation Yrotation
      JOINT LeftFoot
      {
        OFFSET 40.6238 0 0
        CHANNELS 3 Zrotation Xrotation Yrotation
        JOINT LeftToeBase
        {
          OFFSET 12.7242 0 0
          CHANNELS 3 Zrotation Xrotation Yrotation
          End Site
          {
            OFFSET 0 0 0
          }
        }
      }
    }
  }
  JOINT RightUpLeg
  {
    OFFSET -8.2249 1.95398 -2.59336
    CHANNELS 3 Zrotation Xrotation Yrotation
    JOINT RightLeg
    {
      OFFSET 43.5653 0 0
      CHANNELS 3 Zrotation Xrotation Yrotation
      JOINT RightFoot
      {
        OFFSET 40.6238 0 0
        CHANNELS 3 Zrotation Xrotation Yrotation
        JOINT RightToeBase
        {
          OFFSET 12.7242 0 0
          CHANNELS 3 Zrotation Xrotation Yrotation
          End Site
          {
            OFFSET 0 0 0
          }
        }
      }
    }
  }
  JOINT Spine
  {
    OFFSET 0.165834 0.87714 6.61349
    CHANNELS 3 Zrotation Xrotation Yrotation
    JOINT Spine1
    {
      OFFSET 7.38962 1.71661e-005 0
      CHANNELS 3 Zrotation Xrotation Yrotation
      JOINT Spine2
      {
        OFFSET 11.9445 1.14441e-005 0
        CHANNELS 3 Zrotation Xrotation Yrotation
        JOINT Spine3
        {
          OFFSET 14.7254 4.19617e-005 0
          CHANNELS 3 Zrotation Xrotation Yrotation
          JOINT Spine4
          {
            OFFSET 10.9679 0 0
            CHANNELS 3 Zrotation Xrotation Yrotation
            JOINT RightShoulder
            {
              OFFSET 2.46616 -1.6653 3.69651
              CHANNELS 3 Zrotation Xrotation Yrotation
              JOINT RightArm
              {
                OFFSET 13.0012 0 0
                CHANNELS 3 Zrotation Xrotation Yrotation
                JOINT RightForeArm
                {
                  OFFSET 28.7848 1.52588e-005 0
                  CHANNELS 3 Zrotation Xrotation Yrotation
                  JOINT RightHand
                  {
                    OFFSET 26.5688 1.52588e-005 0
                    CHANNELS 3 Zrotation Xrotation Yrotation
                    End Site
                    {
                      OFFSET 0 0 0
                    }
                  }
                }
              }
            }
            JOINT LeftShoulder
            {
              OFFSET 2.38034 -1.29275 -3.75231
              CHANNELS 3 Zrotation Xrotation Yrotation
              JOINT LeftArm
              {
                OFFSET 16.3182 6.10352e-005 0
                CHANNELS 3 Zrotation Xrotation Yrotation
                JOINT LeftForeArm
                {
                  OFFSET 27.0901 0 0
                  CHANNELS 3 Zrotation Xrotation Yrotation
                  JOINT LeftHand
                  {
                    OFFSET 24.5451 1.52588e-005 0
                    CHANNELS 3 Zrotation Xrotation Yrotation
                    End Site
                    {
                      OFFSET 0 0 0
                    }
                  }
                }
              }
            }
            JOINT Neck
            {
              OFFSET 5.0226 -0.0266342 0
              CHANNELS 3 Zrotation Xrotation Yrotation
              JOINT Head
              {
                OFFSET 6.69363 2.86102e-005 0
                CHANNELS 3 Zrotation Xrotation Yrotation
                End Site
                {
                  OFFSET 0 0 0
                }
              }
            }
          }
        }
      }
    }
  }
}
MOTION
Frames:	13
Frame Time:	0.0333333
-105.011 97.9141 -110.682 -20.2949 -82.6928 -22.3506 -172.018 28.8474 91.4984 -30.4282 25.3899 3.44137 27.754 -0.134028 -1.73287 28.7808 4.35752e-006 -2.84998e-006 178.191 12.4177 82.4033 -4.56253 22.2392 1.38428 27.4879 29.285 33.0151 28.7808 1.33967e-005 2.34472e-005 -0.335932 9.01303 -88.2711 8.85189 0.464631 0.0970036 -2.81898 0.468456 0.0764534 -25.3546 0.414004 0.232163 -5.34202 0.413991 0.232147 102.616 24.0603 -74.2481 50.2287 79.2005 -62.8138 -3.52124 -0.247856 -83.2565 -5.37983 -0.320017 -0.0162336 -77.0037 5.46776 99.928 -69.7328 -64.1052 -121.758 -30.7111 -28.9216 -67.9234 -5.76581 0.992718 -38.6163 58.0919 -7.41015 -20.6113 -46.574 -2.53053 24.0635 
-104.784 97.1396 -112.538 -35.5273 -82.2391 -36.862 -172.37 30.6918 91.8163 -33.9802 23.8644 3.13936 29.1099 5.39056 4.31198 28.7808 4.35752e-006 -2.84998e-006 178.341 12.8302 83.5882 -4.42476 19.4975 1.18753 34.1484 30.1249 30.2531 28.7808 1.33967e-005 2.34472e-005 -0.103366 9.54873 -88.8394 7.78464 0.576538 0.153358 -3.88618 0.582728 0.127826 -26.4221 0.503785 0.319538 -6.40944 0.503792 0.319542 102.585 18.5537 -78.8182 65.1674 77.302 -76.3335 -3.5814 -0.367487 -94.6336 -5.37983 -0.320017 -0.0162336 -78.2594 6.14209 94.5482 -78.2383 -61.3936 -125.686 -54.7438 -25.2525 -82.6738 -16.6341 4.79345 -42.2908 66.925 -10.3056 -24.6322 -47.9313 -2.0585 28.2109 
-104.467 96.3763 -114.374 -49.655 -81.7098 -50.0722 -173.232 32.0012 92.4038 -36.9323 20.8685 3.22711 29.8879 8.98999 8.14015 28.7808 4.35752e-006 -2.84998e-006 178.487 13.0941 84.925 -4.44578 17.5431 1.05595 39.4206 29.7453 27.2659 28.7808 1.33967e-005 2.34472e-005 0.222657 10.1796 -89.6606 6.51826 0.6461 0.118196 -5.15254 0.650672 0.08963 -27.6887 0.580701 0.306911 -7.67609 0.5807 0.306922 102.062 16.2285 -84.0539 66.2918 74.884 -73.8729 -3.6301 -0.293585 -104.394 -5.37983 -0.320017 -0.0162336 -80.0443 6.0623 86.7251 -88.9875 -58.5537 -130.173 -66.1529 -15.5294 -87.8515 -25.8612 6.38162 -34.7443 75.3116 -10.36 -23.7432 -48.6142 -0.594792 27.9859 
-104.06 95.3709 -116.33 -51.1325 -80.3718 -50.973 -174.648 35.2035 92.8345 -39.8089 17.6647 3.25788 30.179 11.0521 10.327 28.7808 4.35752e-006 -2.84998e-006 178.703 17.0913 85.924 -8.4917 17.1569 1.06593 44.4556 30.3653 25.4466 28.7808 1.33967e-005 2.34472e-005 0.616552 10.7449 -90.543 5.36884 0.731702 0.00753486 -6.30188 0.731321 -0.0246804 -28.8387 0.695606 0.227113 -8.82601 0.695604 0.227097 101.074 13.1155 -90.7819 70.6802 73.0307 -76.3646 -3.67534 -0.295803 -112.688 -5.37983 -0.320017 -0.0162336 -81.3636 2.90368 82.8795 -92.9351 -49.7853 -131.66 -64.7748 -7.57528 -86.6241 -30.8487 6.98191 -31.6755 86.298 -8.23683 -19.7667 -50.5744 1.22816 24.6761 
-103.734 93.5961 -118.078 -50.8717 -80.0742 -51.5396 -175.612 38.6926 91.8543 -44.3902 13.2543 3.34155 33.4554 12.0257 10.7914 28.7808 4.35752e-006 -2.84998e-006 179.483 26.1985 84.9683 -24.2456 14.2615 0.784261 53.8072 33.8824 23.8984 28.7808 1.33967e-005 2.34472e-005 0.531467 12.1539 -90.5855 2.56555 0.73025 -0.841464 -9.1055 0.692522 -0.872791 -31.641 0.949371 -0.583099 -11.6284 0.949386 -0.583081 102.295 22.546 -81.8363 66.4653 74.7699 -62.0253 -3.71 -0.28382 -119.484 -5.37983 -0.320017 -0.0162336 -79.1161 -4.17746 92.5236 -91.6487 -25.7231 -130.722 -61.0075 -0.326788 -85.1029 -31.6463 9.47275 -39.9197 96.359 6.91526 -3.04757 -42.5807 5.80631 7.37696 
-103.481 91.4814 -119.586 -48.4266 -79.798 -50.4958 -176.054 41.7324 90.3226 -49.0141 12.1116 3.82429 39.5206 13.4982 11.1644 28.7808 4.35752e-006 -2.84998e-006 -179.617 32.4048 83.1885 -33.9584 13.5985 0.590117 60.4219 36.1654 22.4443 28.7808 1.33967e-005 2.34472e-005 -0.0967685 12.4899 -89.7497 1.89943 0.297957 -0.723169 -9.77171 0.265854 -0.735581 -32.3059 0.501517 -0.6002 -12.2933 0.501519 -0.600196 101.032 18.0285 -94.8145 67.3772 72.0778 -64.4628 -3.72897 -0.275114 -123.345 -5.37983 -0.320017 -0.0162336 -81.4114 -10.0575 86.6888 -84.0024 -24.0516 -125.246 -58.0734 2.64474 -86.0826 -35.5142 11.0092 -40.5438 101.177 8.72362 -2.2286 -41.5955 7.33485 4.93046 
-103.15 89.198 -120.829 -45.5392 -78.845 -48.5638 -175.792 44.68 89.7243 -52.981 7.27401 3.2271 49.5784 12.2902 8.61802 28.7808 4.35752e-006 -2.84998e-006 -178.597 38.2278 82.0765 -41.7028 14.8502 0.559972 66.951 36.5649 19.8018 28.7808 1.33967e-005 2.34472e-005 -0.496302 13.0521 -89.1897 0.772477 0.190636 -0.741331 -10.8987 0.157846 -0.748992 -33.4326 0.404625 -0.649772 -13.4199 0.40463 -0.649767 100.207 15.5807 -99.4155 62.7336 69.5084 -60.8251 -3.7348 -0.272131 -124.556 -5.37983 -0.320017 -0.0162336 -82.5576 -14.661 84.8509 -78.7353 -17.947 -120.843 -55.3788 3.7981 -87.4219 -39.4131 11.8794 -39.1152 104.777 10.7905 -1.12926 -37.9581 8.14135 3.84261 
-102.989 86.7188 -121.973 -43.9707 -78.6445 -47.4974 -175.136 47.2744 89.3266 -57.1883 2.30665 2.20004 59.0362 11.4597 6.908 28.7808 4.35752e-006 -2.84998e-006 -177.672 42.8874 81.5107 -48.5438 17.8085 0.639539 74.1788 36.6545 16.8094 28.7808 1.33967e-005 2.34472e-005 -0.915806 13.5639 -88.612 -0.263038 0.105342 -0.764384 -11.9342 0.0715906 -0.768285 -34.4678 0.330189 -0.6974 -14.4552 0.330188 -0.697385 98.3384 10.1155 -105.251 58.0746 65.9007 -59.9881 -3.73156 -0.273908 -123.878 -5.37983 -0.320017 -0.0162336 -84.4794 -17.1702 80.82 -75.1556 -15.7432 -115.885 -54.401 3.45564 -88.2215 -42.6854 13.1436 -39.441 108.4 10.5821 -2.3708 -37.7009 8.87663 5.20531 
-102.956 84.2682 -123.021 -40.7447 -77.9753 -45.043 -174.166 51.0039 88.7397 -61.7971 0.626077 1.38732 64.6117 10.1409 5.57047 28.7808 4.35752e-006 -2.84998e-006 -176.569 47.7245 80.4589 -54.5194 18.2731 0.559883 80.6214 36.7669 14.2734 28.7808 1.33967e-005 2.34472e-005 -1.41684 13.9573 -88.0153 -1.07391 -0.00489861 -0.774943 -12.7451 -0.0389902 -0.77398 -35.2785 0.228223 -0.740592 -15.2659 0.228229 -0.740591 96.2582 5.62354 -110.713 52.4546 62.5869 -56.5654 -3.7241 -0.27776 -122.325 -5.37983 -0.320017 -0.0162336 -86.4098 -20.2277 77.345 -71.1798 -14.1495 -110.258 -54.6054 1.11023 -88.1162 -44.4656 14.2623 -40.6049 110.49 11.1769 -2.68173 -37.2171 9.70497 5.26704 
-102.726 81.9729 -123.678 -40.2076 -78.2584 -45.328 -173.384 53.2186 87.8566 -66.0019 -0.58506 0.944515 70.0232 7.55824 3.80765 28.7808 4.35752e-006 -2.84998e-006 -175.261 50.8342 78.7899 -59.9009 17.6643 0.419578 86.9471 36.3905 11.6922 28.7808 1.33967e-005 2.34472e-005 -1.82767 14.4482 -87.5837 -2.0857 -0.215639 -0.743394 -13.7569 -0.24815 -0.733196 -36.2903 0.0177391 -0.773839 -16.2777 0.0177393 -0.773845 94.5482 1.96528 -113.937 45.9303 59.0302 -50.4361 -3.71088 -0.284258 -119.619 -5.37983 -0.320017 -0.0162336 -87.5057 -22.1511 75.609 -67.5165 -12.4737 -103.634 -47.8149 -4.3901 -85.4617 -39.0973 15.5072 -49.2862 111.425 11.2966 -3.25755 -36.332 10.6054 5.39724 
-102.812 79.8196 -124.333 -40.2388 -77.8324 -45.8502 -171.862 56.1649 87.3786 -70.2659 0.756595 0.531636 72.6336 8.01197 3.8788 28.7808 4.35752e-006 -2.84998e-006 -174.46 54.0947 78.3385 -64.3243 16.7012 0.267401 92.8502 34.2315 8.86219 28.7808 1.33967e-005 2.34472e-005 -2.20962 14.8508 -87.0799 -2.91825 -0.248242 -0.56618 -14.5893 -0.272925 -0.554728 -37.1236 -0.0666133 -0.614624 -17.1109 -0.0666104 -0.61461 92.7718 -2.56437 -115.957 39.3184 53.9379 -45.0105 -3.68278 -0.294899 -114.073 -5.37983 -0.320017 -0.0162336 -88.4606 -23.006 73.8782 -60.8041 -15.7409 -95.5325 -59.3579 -18.2927 -83.1461 -61.0647 22.0384 -42.6841 111.249 9.64833 -5.4648 -36.3085 11.5884 7.41686 
-102.909 77.8639 -125.022 -39.2537 -77.5495 -46.1152 -169.857 60.05 85.8349 -75.1199 6.05853 1.01524 69.5232 6.46728 3.24729 28.7808 4.35752e-006 -2.84998e-006 -172.626 57.3795 76.133 -68.5712 15.7053 0.105112 96.0998 32.8139 7.38523 28.7808 1.33967e-005 2.34472e-005 -2.75014 14.8894 -85.9688 -3.04856 -0.136125 0.479966 -14.7196 -0.11487 0.485487 -37.2542 -0.274085 0.41686 -17.2415 -0.274084 0.416867 85.9293 -19.0742 -121.049 34.7866 45.3196 -48.2958 -3.65447 -0.318861 -108.18 -5.37983 -0.320017 -0.0162336 -90.1185 -21.214 69.5876 -55.2493 -19.0579 -85.2709 -43.9624 -30.3082 -74.097 -99.252 36.5696 -36.9276 113.525 -2.00951 -15.632 -47.1794 11.3022 18.0676 
-102.919 76.0868 -125.585 -39.486 -77.0558 -47.2041 -167.553 62.9898 84.5199 -78.6272 8.71074 0.780186 68.2708 5.78485 2.94088 28.7808 4.35752e-006 -2.84998e-006 -170.907 60.2806 74.2671 -72.1208 14.8498 -0.0285002 98.2607 32.3636 6.57812 28.7808 1.33967e-005 2.34472e-005 -3.21092 15.2645 -85.4686 -3.84504 -0.33455 0.910573 -15.5163 -0.294147 0.924415 -38.0498 -0.592749 0.767952 -18.0372 -0.592737 0.767935 83.6605 -23.1203 -123.238 31.6467 40.5738 -47.2938 -3.59534 -0.14798 -100.329 -5.37983 -0.320017 -0.0162336 -89.5977 -18.8252 69.6212 -51.9347 -18.4495 -79.2844 -10.1683 -19.5712 -58.216 -93.1116 61.5684 -65.0365 109.33 -5.33011 -19.6774 -48.2421 11.5004 21.9184 
